<svg xmlns="http://www.w3.org/2000/svg" version="1.1" xmlns:xlink="http://www.w3.org/1999/xlink" xmlns:svgjs="http://svgjs.dev/svgjs" width="2000" height="1500" viewBox="0 0 2000 1500"><rect width="2000" height="1500" fill="#1e421d"></rect><g transform="matrix(0.75,0,0,0.75,249.09090909090912,282.7536437246963)"><svg viewBox="0 0 396 247" data-background-color="#1e421d" preserveAspectRatio="xMidYMid meet" height="1247" width="2000" xmlns="http://www.w3.org/2000/svg" xmlns:xlink="http://www.w3.org/1999/xlink"><g id="tight-bounds" transform="matrix(1,0,0,1,0.2400000000000091,-0.09999999999999432)"><svg viewBox="0 0 395.52 247.2" height="247.2" width="395.52"><g><svg></svg></g><g><svg viewBox="0 0 395.52 247.2" height="247.2" width="395.52"><g transform="matrix(1,0,0,1,75.54432,88.52706353104439)"><svg viewBox="0 0 244.43135999999998 70.14587293791121" height="70.14587293791121" width="244.43135999999998"><g><svg viewBox="0 0 244.43135999999998 70.14587293791121" height="70.14587293791121" width="244.43135999999998"><g><svg viewBox="0 0 244.43135999999998 70.14587293791121" height="70.14587293791121" width="244.43135999999998"><g><svg viewBox="0 0 244.43135999999998 70.14587293791121" height="70.14587293791121" width="244.43135999999998"><g id="textblocktransform"><svg viewBox="0 0 244.43135999999998 70.14587293791121" height="70.14587293791121" width="244.43135999999998" id="textblock"><g><svg viewBox="0 0 244.43135999999998 38.189057120350114" height="38.189057120350114" width="244.43135999999998"><g transform="matrix(1,0,0,1,0,0)"><svg width="244.43135999999998" viewBox="0.9 -35 228.48 35.7" height="38.189057120350114" data-palette-color="#e1e587"><path d="M34.6-29.9L23.4-0.5Q23.35-0.5 23.15-0.5 22.95-0.5 21.6 0.5L21.6 0.5 10.1-29.6 7.7-3.4Q7.6-2.6 8.45-2.05 9.3-1.5 10.8-1.5L10.8-1.5 12.9-1.5 12.9 0 0.9 0 0.9-1.5 2.5-1.5Q5.4-1.5 5.6-3.7L5.6-3.7 8.1-31.3Q8.2-32.25 7.43-32.88 6.65-33.5 5-33.5L5-33.5 3.4-33.5 3.4-35 12.8-35 23.5-6.8 34.3-35 43.3-35 43.3-33.6 41.3-33.6Q38.9-33.6 38.9-31.75L38.9-31.75Q38.9-31.6 38.9-31.4L38.9-31.4 41.2-3.7Q41.3-2.55 41.78-2.02 42.25-1.5 43.5-1.5L43.5-1.5 45.5-1.5 45.5 0 32.7 0 32.7-1.5 34.4-1.5Q35.8-1.5 36.3-1.95 36.8-2.4 36.8-2.93 36.8-3.45 36.8-3.7L36.8-3.7 34.6-29.9ZM81-1.5L81 0 69.6 0 69.6-1.5 70.5-1.5Q71.3-1.5 71.3-1.9L71.3-1.9Q71.3-2.1 70.5-3.3L70.5-3.3 60.3-19.1 56.8-15.6 56.8-3.7Q56.8-2.95 56.9-2.55 57-2.15 57.55-1.83 58.1-1.5 59.2-1.5L59.2-1.5 61.1-1.5 61.1 0 48.4 0 48.4-1.5 50-1.5Q51.1-1.5 51.65-1.83 52.2-2.15 52.3-2.55 52.4-2.95 52.4-3.7L52.4-3.7 52.4-31.3Q52.4-32.05 52.3-32.45 52.2-32.85 51.65-33.18 51.1-33.5 50-33.5L50-33.5 48.4-33.5 48.4-35 61.1-35 61.1-33.5 59.2-33.5Q58.1-33.5 57.55-33.18 57-32.85 56.9-32.45 56.8-32.05 56.8-31.3L56.8-31.3 56.8-18.3 69.7-30.9Q70.7-31.8 70.7-32.5L70.7-32.5Q70.7-33.5 69.2-33.5L69.2-33.5 68.3-33.5 68.3-35 78.2-35 78.2-33.5 77.4-33.5Q76.5-33.5 74.8-32.55 73.1-31.6 71.9-30.4L71.9-30.4 63.4-22 74.7-5Q75.3-4.2 75.8-3.4L75.8-3.4Q77.3-1.5 79.8-1.5L79.8-1.5 81-1.5ZM124.89-6.9L123.19 0 96.39 0 96.39-1.4 98.09-1.4Q99.54-1.4 100.02-1.95 100.49-2.5 100.49-3.7L100.49-3.7 100.49-31.3Q100.49-32.3 99.87-32.95 99.24-33.6 98.09-33.6L98.09-33.6 96.39-33.6 96.39-35 122.79-35 123.19-28.1 121.79-27.8Q121.79-29.6 120.34-31.25 118.89-32.9 116.29-32.9L116.29-32.9 107.19-32.9Q105.69-32.9 105.24-32.33 104.79-31.75 104.79-30.7L104.79-30.7 104.79-19.3 114.79-19.3Q115.54-19.3 115.94-19.38 116.34-19.45 116.67-19.9 116.99-20.35 116.99-21.2L116.99-21.2 116.99-23.5 118.49-23.5 118.49-13.1 116.99-13.1 116.99-15.2Q116.99-16.45 116.44-16.82 115.89-17.2 114.79-17.2L114.79-17.2 104.79-17.2 104.79-4.3Q104.79-3.25 105.24-2.68 105.69-2.1 107.19-2.1L107.19-2.1 116.69-2.1Q119.34-2.1 121.37-3.8 123.39-5.5 123.49-7.1L123.49-7.1 124.89-6.9ZM128.59-1.4L128.59-1.4 129.09-6.8 130.49-6.7Q130.49-5 132.69-3.45 134.89-1.9 137.44-1.9L137.44-1.9Q142.69-1.9 142.69-5.1L142.69-5.1Q142.69-6.7 141.34-7.95 139.99-9.2 138.09-10.03 136.19-10.85 134.29-11.73 132.39-12.6 131.04-14.03 129.69-15.45 129.69-17.3L129.69-17.3Q129.69-23.8 139.29-23.8L139.29-23.8Q141.44-23.8 143.99-22.6L143.99-22.6 143.69-17.6 142.49-17.6Q142.49-19 140.87-20.3 139.24-21.6 137.34-21.6 135.44-21.6 134.12-20.85 132.79-20.1 132.79-18.63 132.79-17.15 134.14-16.2 135.49-15.25 137.39-14.65 139.29-14.05 141.19-13.3 143.09-12.55 144.44-10.85 145.79-9.15 145.79-6.6 145.79-4.05 144.14-2.35L144.14-2.35Q141.19 0.7 135.59 0.7L135.59 0.7Q131.24 0.7 128.59-1.4ZM164.19-3.1L164.19-3.1 164.59-1.9Q160.84 0.7 156.39 0.7L156.39 0.7Q154.79 0.7 153.64-0.45 152.49-1.6 152.49-3.5L152.49-3.5 152.49-21.2 149.59-21.2 149.59-23.3 150.69-23.3Q152.34-23.3 153.76-25.3 155.19-27.3 155.19-29L155.19-29 156.49-29 156.49-23.3 163.29-23.3 163.29-21.2 158.39-21.2Q156.49-21.2 156.49-19.4L156.49-19.4 156.49-5.1Q156.49-1.8 158.89-1.8L158.89-1.8Q161.59-1.8 164.19-3.1ZM188.84-1.4L188.84 0 181.64 0 181.64-4Q179.14-1.3 177.49-0.3 175.84 0.7 173.01 0.7 170.19 0.7 168.61-0.63 167.04-1.95 167.04-4.35 167.04-6.75 169.11-9.03 171.19-11.3 173.96-12.48 176.74-13.65 178.84-14.28 180.94-14.9 181.64-14.9L181.64-14.9 181.64-16Q181.64-20.7 177.74-20.7L177.74-20.7Q175.04-20.7 172.71-19.55 170.39-18.4 169.24-16.6L169.24-16.6 168.24-17.5Q171.59-24 179.84-24L179.84-24Q181.94-24 183.31-22.88 184.69-21.75 185.16-20.25 185.64-18.75 185.64-16.9L185.64-16.9 185.64-3.4Q185.64-2.75 185.74-2.4 185.84-2.05 186.36-1.73 186.89-1.4 187.94-1.4L187.94-1.4 188.84-1.4ZM181.64-6.8L181.64-6.8 181.64-12.9Q177.74-12.15 174.39-9.9 171.04-7.65 171.04-5L171.04-5Q171.04-3.95 172.06-3.18 173.09-2.4 174.61-2.4 176.14-2.4 178.24-3.78 180.34-5.15 181.64-6.8ZM206.58-3.1L206.58-3.1 206.98-1.9Q203.23 0.7 198.78 0.7L198.78 0.7Q197.18 0.7 196.03-0.45 194.88-1.6 194.88-3.5L194.88-3.5 194.88-21.2 191.98-21.2 191.98-23.3 193.08-23.3Q194.73-23.3 196.16-25.3 197.58-27.3 197.58-29L197.58-29 198.88-29 198.88-23.3 205.68-23.3 205.68-21.2 200.78-21.2Q198.88-21.2 198.88-19.4L198.88-19.4 198.88-5.1Q198.88-1.8 201.28-1.8L201.28-1.8Q203.98-1.8 206.58-3.1ZM228.48-6.1L228.48-6.1 229.38-5.2Q226.18 0.7 217.88 0.7L217.88 0.7Q214.03 0.7 211.31-2.7 208.58-6.1 208.58-10.3L208.58-10.3Q208.58-15.95 212.26-19.98 215.93-24 221.18-24L221.18-24Q223.68-24 225.58-22.55L225.58-22.55Q228.98-19.9 228.98-15.7L228.98-15.7Q228.98-15.1 228.76-14.25 228.53-13.4 228.38-13.4L228.38-13.4 212.28-12.9Q212.28-9 214.73-5.7 217.18-2.4 220.68-2.4L220.68-2.4Q223.18-2.4 225.31-3.43 227.43-4.45 228.48-6.1ZM212.78-14.9L212.78-14.9 224.48-15.4Q224.58-15.4 224.58-16.3L224.58-16.3Q224.58-18.9 223.06-20 221.53-21.1 218.86-21.1 216.18-21.1 214.48-19.45 212.78-17.8 212.78-14.9Z" opacity="1" transform="matrix(1,0,0,1,0,0)" fill="#e1e587" class="wordmark-text-0" data-fill-palette-color="primary" id="text-0"></path></svg></g></svg></g><g transform="matrix(1,0,0,1,0,47.204576969093885)"><svg viewBox="0 0 244.43135999999998 22.94129596881731" height="22.94129596881731" width="244.43135999999998"><g transform="matrix(1,0,0,1,0,0)"><svg width="244.43135999999998" viewBox="3.85 -35.9 487.4 45.75" height="22.94129596881731" data-palette-color="#e1e587"><path d="M20.6-18.2L20.6-14.65 7.9-14.65 7.9 0 3.85 0 3.85-33.7 22.35-33.7 22.35-30.15 7.9-30.15 7.9-18.2 20.6-18.2ZM32.25-25.35L32.25 0 28.3 0 28.3-25.35 32.25-25.35ZM32.1-35.15Q32.85-34.4 32.85-33.3 32.85-32.2 32.1-31.48 31.35-30.75 30.25-30.75 29.15-30.75 28.42-31.48 27.7-32.2 27.7-33.3 27.7-34.4 28.42-35.15 29.15-35.9 30.25-35.9 31.35-35.9 32.1-35.15ZM59.75-17.45L59.75 0 55.8 0 55.8-16.4Q55.8-19.2 54.37-20.68 52.95-22.15 50.65-22.15L50.65-22.15Q47.8-22.15 45.72-19.95 43.65-17.75 43.65-13.85L43.65-13.85 43.65 0 39.75 0 39.75-25.35 43.65-25.35 43.65-20.95Q45.9-25.7 51.65-25.7L51.65-25.7Q55.35-25.7 57.55-23.45 59.75-21.2 59.75-17.45L59.75-17.45ZM69.34-12.4L69.34-12.4Q69.34-8.3 71.34-5.75 73.34-3.2 76.39-3.2L76.39-3.2Q79.49-3.2 81.67-5.5 83.84-7.8 83.84-12.85L83.84-12.85Q83.84-17.65 81.59-19.9 79.34-22.15 76.64-22.15L76.64-22.15Q73.49-22.15 71.42-19.63 69.34-17.1 69.34-12.4ZM87.79-35.35L87.79 0 83.84 0 83.84-3.75Q81.14 0.4 76.04 0.4L76.04 0.4Q70.99 0.4 68.12-3.35 65.24-7.1 65.24-12.45L65.24-12.45Q65.24-18.4 68.29-22.08 71.34-25.75 76.14-25.75L76.14-25.75Q81.09-25.75 83.84-21.5L83.84-21.5 83.84-35.35 87.79-35.35ZM127.44-25.35L118.29-0.65Q116.34 4.5 113.66 6.6 110.99 8.7 107.54 8.7L107.54 8.7Q106.24 8.7 105.44 8.45L105.44 8.45 105.44 4.9Q106.19 5.1 107.14 5.1L107.14 5.1Q112.19 5.1 114.29-0.65L114.29-0.65 104.04-25.35 108.49-25.35 111.79-17 116.24-5.5Q116.64-6.8 120.24-17L120.24-17 123.19-25.35 127.44-25.35ZM154.24-12.6L154.24-12.6Q154.24-6.95 151.04-3.25 147.84 0.45 142.24 0.45L142.24 0.45Q136.79 0.45 133.61-3.23 130.44-6.9 130.44-12.5L130.44-12.5Q130.44-18.15 133.71-21.93 136.99-25.7 142.24-25.7L142.24-25.7Q147.99-25.7 151.11-22 154.24-18.3 154.24-12.6ZM134.54-12.55L134.54-12.55Q134.54-8.6 136.64-5.83 138.74-3.05 142.24-3.05L142.24-3.05Q146.04-3.05 148.09-5.78 150.14-8.5 150.14-12.55L150.14-12.55Q150.14-16.75 148.19-19.48 146.24-22.2 142.24-22.2L142.24-22.2Q138.64-22.2 136.59-19.4 134.54-16.6 134.54-12.55ZM179.73-25.35L179.73 0 175.78 0 175.78-4.4Q173.78 0.3 167.83 0.3L167.83 0.3Q164.08 0.3 161.91-1.93 159.73-4.15 159.73-7.9L159.73-7.9 159.73-25.35 163.68-25.35 163.68-8.9Q163.68-6.15 165.08-4.7 166.48-3.25 168.88-3.25L168.88-3.25Q172.03-3.25 173.91-5.45 175.78-7.65 175.78-11.4L175.78-11.4 175.78-25.35 179.73-25.35ZM190.93-13.85L190.93 0 186.98 0 187.03-25.35 190.93-25.35 190.93-20.9Q192.93-25.6 197.83-25.6L197.83-25.6Q198.73-25.6 199.23-25.5L199.23-25.5 199.23-21.6Q198.18-21.95 197.08-21.95L197.08-21.95Q194.43-21.95 192.68-19.5 190.93-17.05 190.93-13.85L190.93-13.85ZM219.43-3.85L219.43 9.85 215.53 9.85 215.53-25.35 219.43-25.35 219.43-21.5Q222.08-25.75 227.28-25.75L227.28-25.75Q232.33-25.75 235.2-22.08 238.08-18.4 238.08-12.9L238.08-12.9Q238.08-7.05 235.05-3.33 232.03 0.4 227.18 0.4L227.18 0.4Q222.18 0.4 219.43-3.85L219.43-3.85ZM219.43-12.65L219.43-12.65Q219.43-7.8 221.68-5.5 223.93-3.2 226.68-3.2L226.68-3.2Q229.88-3.2 231.93-5.73 233.98-8.25 233.98-12.9L233.98-12.9Q233.98-17.05 231.98-19.6 229.98-22.15 226.93-22.15 223.88-22.15 221.65-19.93 219.43-17.7 219.43-12.65ZM262.37-5L262.37-1.3Q259.42 0.25 255.17 0.25L255.17 0.25Q249.42 0.25 245.9-3.28 242.37-6.8 242.37-12.6L242.37-12.6Q242.37-18.65 245.52-22.15 248.67-25.65 253.62-25.65L253.62-25.65Q258.37-25.65 261.17-22.6 263.97-19.55 263.97-13.95L263.97-13.95Q263.97-12.35 263.72-11L263.72-11 246.42-11Q246.87-7.25 249.27-5.25 251.67-3.25 255.57-3.25L255.57-3.25Q259.82-3.25 262.37-5L262.37-5ZM253.62-22.2L253.62-22.2Q250.77-22.2 248.77-20.15 246.77-18.1 246.42-14.3L246.42-14.3 260.02-14.3 260.02-15.3Q260.02-18.45 258.32-20.33 256.62-22.2 253.62-22.2ZM273.87-13.85L273.87 0 269.92 0 269.97-25.35 273.87-25.35 273.87-20.9Q275.87-25.6 280.77-25.6L280.77-25.6Q281.67-25.6 282.17-25.5L282.17-25.5 282.17-21.6Q281.12-21.95 280.02-21.95L280.02-21.95Q277.37-21.95 275.62-19.5 273.87-17.05 273.87-13.85L273.87-13.85ZM298.02-25.35L298.02-22.15 292.42-22.15 292.42 0 288.47 0 288.47-22.15 284.12-22.15 284.12-25.35 288.47-25.35 288.47-27.7Q288.47-31.4 290.44-33.55 292.42-35.7 295.92-35.7L295.92-35.7Q297.12-35.7 298.37-35.35L298.37-35.35 298.37-31.75Q297.17-32.15 296.07-32.15L296.07-32.15Q294.47-32.15 293.44-31.05 292.42-29.95 292.42-27.65L292.42-27.65 292.42-25.35 298.02-25.35ZM321.22-5L321.22-1.3Q318.27 0.25 314.02 0.25L314.02 0.25Q308.27 0.25 304.74-3.28 301.22-6.8 301.22-12.6L301.22-12.6Q301.22-18.65 304.37-22.15 307.52-25.65 312.47-25.65L312.47-25.65Q317.22-25.65 320.02-22.6 322.82-19.55 322.82-13.95L322.82-13.95Q322.82-12.35 322.57-11L322.57-11 305.27-11Q305.72-7.25 308.12-5.25 310.52-3.25 314.42-3.25L314.42-3.25Q318.67-3.25 321.22-5L321.22-5ZM312.47-22.2L312.47-22.2Q309.62-22.2 307.62-20.15 305.62-18.1 305.27-14.3L305.27-14.3 318.87-14.3 318.87-15.3Q318.87-18.45 317.17-20.33 315.47-22.2 312.47-22.2ZM346.26-4.65L346.26-0.9Q343.86 0.55 340.36 0.55L340.36 0.55Q334.36 0.55 330.84-3.28 327.31-7.1 327.31-12.6L327.31-12.6Q327.31-18 330.84-21.9 334.36-25.8 340.46-25.8L340.46-25.8Q343.71-25.8 346.26-24.4L346.26-24.4 346.26-20.65Q343.96-22.2 340.86-22.2L340.86-22.2Q336.56-22.2 333.99-19.43 331.41-16.65 331.41-12.55L331.41-12.55Q331.46-8.45 333.91-5.73 336.36-3 340.86-3L340.86-3Q343.76-3 346.26-4.65L346.26-4.65ZM365.06-4.4L365.06-0.65Q363.41 0.25 361.36 0.25L361.36 0.25Q353.86 0.25 353.86-7.4L353.86-7.4 353.86-22.15 349.81-22.15 349.81-25.35 353.86-25.35 353.86-31.65 357.81-31.65 357.81-25.35 364.81-25.35 364.81-22.15 357.81-22.15 357.81-7.3Q357.81-3.25 361.61-3.25L361.61-3.25Q363.56-3.25 365.06-4.4L365.06-4.4ZM386.91-3.85L386.91 9.85 383.01 9.85 383.01-25.35 386.91-25.35 386.91-21.5Q389.56-25.75 394.76-25.75L394.76-25.75Q399.81-25.75 402.68-22.08 405.56-18.4 405.56-12.9L405.56-12.9Q405.56-7.05 402.53-3.33 399.51 0.4 394.66 0.4L394.66 0.4Q389.66 0.4 386.91-3.85L386.91-3.85ZM386.91-12.65L386.91-12.65Q386.91-7.8 389.16-5.5 391.41-3.2 394.16-3.2L394.16-3.2Q397.36-3.2 399.41-5.73 401.46-8.25 401.46-12.9L401.46-12.9Q401.46-17.05 399.46-19.6 397.46-22.15 394.41-22.15 391.36-22.15 389.13-19.93 386.91-17.7 386.91-12.65ZM415.5-35.35L415.5 0 411.55 0 411.55-35.35 415.5-35.35ZM430.75-3.05L430.75-3.05Q433.45-3.05 435.05-4.58 436.65-6.1 436.65-8.45L436.65-8.45 436.65-11.7 432.25-11.7Q429.05-11.7 427.45-10.45 425.85-9.2 425.85-7.3 425.85-5.4 427.1-4.23 428.35-3.05 430.75-3.05ZM436.7 0L436.7-3Q434.75 0.25 429.6 0.25L429.6 0.25Q426.05 0.25 423.88-1.85 421.7-3.95 421.7-7.15L421.7-7.15Q421.7-10.8 424.48-12.83 427.25-14.85 432.05-14.85L432.05-14.85 436.65-14.85 436.65-16.15Q436.65-19.15 435.3-20.68 433.95-22.2 430.75-22.2L430.75-22.2Q426.7-22.2 423.55-20.05L423.55-20.05 423.55-24Q426.4-25.75 431.05-25.75L431.05-25.75Q440.6-25.75 440.6-16.05L440.6-16.05 440.6 0 436.7 0ZM465.05-4.65L465.05-0.9Q462.65 0.55 459.15 0.55L459.15 0.55Q453.15 0.55 449.62-3.28 446.1-7.1 446.1-12.6L446.1-12.6Q446.1-18 449.62-21.9 453.15-25.8 459.25-25.8L459.25-25.8Q462.5-25.8 465.05-24.4L465.05-24.4 465.05-20.65Q462.75-22.2 459.65-22.2L459.65-22.2Q455.35-22.2 452.77-19.43 450.2-16.65 450.2-12.55L450.2-12.55Q450.25-8.45 452.7-5.73 455.15-3 459.65-3L459.65-3Q462.55-3 465.05-4.65L465.05-4.65ZM489.65-5L489.65-1.3Q486.7 0.25 482.45 0.25L482.45 0.25Q476.7 0.25 473.17-3.28 469.65-6.8 469.65-12.6L469.65-12.6Q469.65-18.65 472.8-22.15 475.95-25.65 480.9-25.65L480.9-25.65Q485.65-25.65 488.45-22.6 491.25-19.55 491.25-13.95L491.25-13.95Q491.25-12.35 491-11L491-11 473.7-11Q474.15-7.25 476.55-5.25 478.95-3.25 482.85-3.25L482.85-3.25Q487.1-3.25 489.65-5L489.65-5ZM480.9-22.2L480.9-22.2Q478.05-22.2 476.05-20.15 474.05-18.1 473.7-14.3L473.7-14.3 487.3-14.3 487.3-15.3Q487.3-18.45 485.6-20.33 483.9-22.2 480.9-22.2Z" opacity="1" transform="matrix(1,0,0,1,0,0)" fill="#e1e587" class="slogan-text-1" data-fill-palette-color="secondary" id="text-1"></path></svg></g></svg></g></svg></g></svg></g></svg></g></svg></g></svg></g><g><path d="M0 123.6c0-68.262 55.338-123.6 123.6-123.6 54.419 0 100.625 35.169 117.127 84.019l-1.82 0c-16.433-47.882-61.851-82.297-115.307-82.297-67.311 0-121.878 54.567-121.878 121.878 0 67.311 54.567 121.878 121.878 121.878 53.456 0 98.874-34.415 115.307-82.297h1.82c-16.502 48.85-62.707 84.019-117.127 84.019-68.262 0-123.6-55.338-123.6-123.6z" fill="#e1e587" stroke="transparent" data-fill-palette-color="tertiary"></path></g></svg></g><defs></defs></svg><rect width="395.52" height="247.2" fill="none" stroke="none" visibility="hidden"></rect></g></svg></g></svg>